# xmcd
#
# Track frame offsets:
#	150
#	17535
#	34904
#	61023
#
# Disc length: 1058 seconds
#
# Revision: 0
# Processed by: cddbd v1.5.2PL0 Copyright (c) Steve Scherf et al.
# Submitted via: audiograbber 1.83.01
#
DISCID=25042004
DTITLE=Soehne Mannheims - Ist es wahr (Aim High)
DYEAR=2011
DGENRE=
TTITLE0=söhne mannheims - Ist es wahr (Aim High)
TTITLE1=söhne mannheims - Ist es wahr (Aim High) Radio Edit
TTITLE2=söhne mannheims - Ist es wahr (Aim High) Album Edit
TTITLE3=söhne mannheims - IIst es wahr (Aim High) nstrumental
EXTD=
EXTT0=
EXTT1=
EXTT2=
EXTT3=
PLAYORDER=
